<svg xmlns="http://www.w3.org/2000/svg" width="24" height="24" viewBox="0 0 24 24">
    <g fill="none" fill-rule="evenodd">
        <g fill="#FFF">
            <g>
                <g>
                    <g>
                        <g>
                            <g>
                                <path d="M19.74 4.26c-.347-.347-.91-.347-1.257 0L4.26 18.484c-.174.174-.261.4-.261.629 0 .227.087.455.26.628.348.347.91.347 1.258 0L19.74 5.518c.347-.348.347-.91 0-1.257M16 19c-.827 0-1.5-.673-1.5-1.5S15.173 16 16 16s1.5.673 1.5 1.5S16.827 19 16 19m0-5c-1.93 0-3.5 1.57-3.5 3.5S14.07 21 16 21s3.5-1.57 3.5-3.5S17.93 14 16 14M8 6c.827 0 1.5.673 1.5 1.5S8.827 9 8 9s-1.5-.673-1.5-1.5S7.173 6 8 6m0 5c1.93 0 3.5-1.57 3.5-3.5S9.93 4 8 4 4.5 5.57 4.5 7.5 6.07 11 8 11" transform="translate(-284 -160) translate(0 40) translate(0 104) translate(56) translate(212) translate(16 16)"/>
                            </g>
                        </g>
                    </g>
                </g>
            </g>
        </g>
    </g>
</svg>
