<?xml version="1.0" encoding="UTF-8"?>
<svg width="208px" height="52px" viewBox="0 0 208 52" version="1.1" xmlns="http://www.w3.org/2000/svg" xmlns:xlink="http://www.w3.org/1999/xlink">
    <title>C69CD17E-6A2C-476C-9F55-3BE68DB180FC</title>
    <g id="Главная" stroke="none" stroke-width="1" fill="none" fill-rule="evenodd">
        <g id="Home-Desktop" transform="translate(-56.000000, -68.000000)">
            <g id="Header/Header" transform="translate(0.000000, 40.000000)">
                <g id="Logo-/-Logo-Colored" transform="translate(56.000000, 28.000000)">
                    <g id="Group" transform="translate(0.000000, 0.368524)" fill="#007FFF">
                        <path d="M33.0215913,0.000664928861 C35.7178565,0.0385092954 38.1139975,1.68696551 39.1079992,4.15679202 L39.2126177,4.43455722 L39.485765,5.26017135 C44.0452077,18.8930292 49.6031937,28.1011822 59.3077468,36.6368309 L60.1121152,37.3326293 L60.1121152,37.3326293 L60.9308729,38.0252384 L61.811721,38.7504894 C63.0667518,39.7099562 63.9707091,41.1071428 64.2890106,42.7301489 C64.8486493,45.5837223 63.466529,48.4656939 60.8834501,49.8313607 C58.392624,51.1482536 55.348757,50.7572062 53.2790812,48.8846379 L53.0532038,48.6704894 L52.4910193,48.1662386 C41.1016221,38.0643218 20.8621508,26.828064 5.68027982,23.0010302 L4.91274675,22.8128623 L4.64869326,22.758156 C2.46924824,22.249754 0.825979189,20.4402195 0.555793339,18.2130999 C0.274800056,15.8968956 1.54441314,13.6687739 3.68788221,12.7164055 C5.74204007,11.8037191 8.14001637,12.2665087 9.70058208,13.8489428 L9.89928802,14.0616759 L10.4815263,14.5856002 C19.4887723,22.5724872 33.9040393,30.037992 46.6141082,34.3133142 L46.0114542,33.139642 C46.012814,33.1401382 46.0141736,33.1406343 46.015533,33.1411303 C42.6083137,26.7394614 38.3796278,21.2807242 32.7041027,15.5817199 L32.0398588,16.2121843 L32.0369593,16.2081089 C30.3475001,17.8482252 28.743605,19.5750305 27.230726,21.3809979 C26.6411841,22.1321843 26.1226057,20.4915064 24.9871918,20.4942182 C24.3703564,20.4942182 24.1683837,21.1152352 24.3348747,21.6332013 C24.6733154,22.6881165 13.9633055,12.3098115 12.126446,10.4630318 C10.2158938,8.52133688 12.6723181,7.66709959 13.5620896,10.3003199 C14.550118,13.218286 19.8396183,17.0799809 20.890422,17.5762521 C21.4826932,17.8637098 19.951522,15.059642 18.897989,13.218286 C17.8444559,11.3769301 19.9242284,10.3681165 20.0306735,11.8976081 C20.3036095,15.778286 22.1213635,15.6128623 22.1213635,15.6128623 C23.8944176,11.9789506 25.4101628,8.22656464 26.6575603,4.3830318 L26.6615742,4.38466493 L26.7069823,4.25903004 C27.6671703,1.75539361 30.0472169,0.0840783214 32.7231095,0.00308154035 L33.0215913,0.000664928861 Z M4.04695137,28.8664974 L3.76914478,28.8738793 C-0.704276765,29.0826928 -0.74521717,26.4494725 1.3127205,26.7830318 L4.39661077,27.7451624 C8.30897601,28.980287 14.7211579,31.0624668 16.7936522,32.0901504 C19.63593,33.512717 18.5709849,33.8860467 17.5145025,34.0255464 L17.421405,34.0372691 C16.4606702,34.1565911 16.5480097,34.5254047 17.9126899,35.2711674 C18.2075442,35.4271707 18.3217873,35.7894392 18.1692498,36.0847267 L17.9523403,36.5235294 C17.2476152,37.9788302 15.8907045,41.0561352 14.5228244,45.6440487 L14.465849,45.8484555 L14.465849,45.8484555 L14.4027325,46.0508284 L14.4027325,46.0969301 L14.2999759,46.3771002 C13.3219047,48.8686298 10.919557,50.5401598 8.20856551,50.5835958 C5.39716692,50.6286406 2.86070654,48.9130351 1.87202336,46.2976995 C0.919958078,43.7792282 1.60104401,40.9499411 3.56911965,39.1319639 L3.8018971,38.9267606 L4.76383348,38.0354427 C6.66299082,36.2575666 8.41490593,34.5075839 10.0384854,32.7735403 C10.5768517,32.3260826 8.94742362,32.5894725 7.73750672,32.8337945 L6.76325303,33.0447267 C3.40547416,33.8252145 3.843146,31.2449909 5.68371719,31.3125662 L6.57632897,31.3880553 C8.18183478,31.5066917 11.0583928,31.6195877 11.2830737,31.2847267 C11.5431211,30.8971561 7.31683512,28.8408786 4.04695137,28.8664974 L4.04695137,28.8664974 Z" id="Shape"></path>
                    </g>
                    <path d="M71.9059218,33.0035883 L72.9698875,29.4865469 L78.3101768,29.4865469 L79.3741425,33.0035883 L81.4202304,33.0035883 L76.9188371,18.9964117 L74.4635316,18.9964117 L69.9416774,33.0035883 L71.9059218,33.0035883 Z M77.8395766,27.9211585 L73.4404877,27.9211585 L75.6502626,20.6024595 L77.8395766,27.9211585 Z M88.4996945,33.0035883 C92.2235744,33.0035883 94.0855144,31.67538 94.0855144,29.0189633 C94.0855144,27.9347116 93.7854215,27.135076 93.1852357,26.6200564 C92.5850499,26.1050369 91.8007162,25.7662082 90.8322346,25.6035705 C91.5688263,25.4544859 92.1928831,25.1088806 92.7044051,24.5667548 C93.215927,24.0246289 93.471688,23.3469716 93.471688,22.5337829 C93.471688,21.341106 92.9976776,20.4533749 92.0496569,19.8705896 C91.1016362,19.2878043 89.7341675,18.9964117 87.9472507,18.9964117 L87.9472507,18.9964117 L84.6121275,18.9964117 L84.6121275,33.0035883 L88.4996945,33.0035883 Z M88.6838424,24.9326897 L86.555911,24.9326897 L86.555911,20.5211407 L88.1518595,20.5211407 C89.2703876,20.5211407 90.1058734,20.6770018 90.6583172,20.9887242 C91.2107609,21.3004466 91.4869828,21.8629021 91.4869828,22.6760909 C91.4869828,23.3944076 91.2244015,23.9500866 90.6992389,24.3431279 C90.1740764,24.7361691 89.5022775,24.9326897 88.6838424,24.9326897 L88.6838424,24.9326897 Z M88.4996945,31.4585296 L86.555911,31.4585296 L86.555911,26.4167592 L88.8679903,26.4167592 C89.8091907,26.4167592 90.5730635,26.6200564 91.1596087,27.0266508 C91.7461539,27.4332452 92.0394265,28.0973494 92.0394265,29.0189633 C92.0394265,29.9676835 91.7359235,30.611458 91.1289174,30.9502866 C90.5219113,31.2891153 89.6455037,31.4585296 88.4996945,31.4585296 L88.4996945,31.4585296 Z M101.881109,33.0035883 L101.881109,20.643119 L105.789137,20.643119 L105.993746,18.9964117 L95.9269935,18.9964117 L95.9269935,20.643119 L99.9373257,20.643119 L99.9373257,33.0035883 L101.881109,33.0035883 Z M113.584732,33.2475449 C114.771463,33.2475449 115.811557,32.9629289 116.705016,32.3936967 C117.598474,31.8244646 118.294144,30.9977227 118.792025,29.913471 C119.289907,28.8292193 119.538848,27.5281172 119.538848,26.0101649 C119.538848,24.4651062 119.289907,23.150451 118.792025,22.0661993 C118.294144,20.9819476 117.598474,20.158594 116.705016,19.5961384 C115.811557,19.0336829 114.771463,18.7524551 113.584732,18.7524551 C112.411641,18.7524551 111.374957,19.0404594 110.474678,19.6164681 C109.5744,20.1924769 108.87532,21.0293836 108.377438,22.1271885 C107.879557,23.2249933 107.630616,24.5260954 107.630616,26.0304946 C107.630616,27.5620001 107.879557,28.8698787 108.377438,29.9541304 C108.87532,31.0383821 109.570989,31.8583474 110.464448,32.4140264 C111.357906,32.9697054 112.398001,33.2475449 113.584732,33.2475449 Z M113.584732,31.6618268 C112.37072,31.6618268 111.419289,31.2077964 110.730439,30.2997356 C110.04159,29.3916748 109.697165,27.9685945 109.697165,26.0304946 C109.697165,24.0788415 110.03818,22.642208 110.720209,21.7205941 C111.402238,20.7989801 112.357079,20.3381732 113.584732,20.3381732 C116.176443,20.3381732 117.472299,22.2288371 117.472299,26.0101649 C117.472299,29.7779395 116.176443,31.6618268 113.584732,31.6618268 Z M125.677111,33.0035883 L125.677111,26.437089 L127.600434,26.437089 L131.283392,33.0035883 L133.534089,33.0035883 L129.237304,25.562911 L133.145332,18.9964117 L131.099244,18.9964117 L127.620895,24.8513709 L125.677111,24.8513709 L125.677111,18.9964117 L123.733328,18.9964117 L123.733328,33.0035883 L125.677111,33.0035883 Z M141.554753,33.2475449 C142.741484,33.2475449 143.781579,32.9629289 144.675037,32.3936967 C145.568496,31.8244646 146.264165,30.9977227 146.762047,29.913471 C147.259928,28.8292193 147.508869,27.5281172 147.508869,26.0101649 C147.508869,24.4651062 147.259928,23.150451 146.762047,22.0661993 C146.264165,20.9819476 145.568496,20.158594 144.675037,19.5961384 C143.781579,19.0336829 142.741484,18.7524551 141.554753,18.7524551 C140.381663,18.7524551 139.344978,19.0404594 138.4447,19.6164681 C137.544421,20.1924769 136.845341,21.0293836 136.347459,22.1271885 C135.849578,23.2249933 135.600637,24.5260954 135.600637,26.0304946 C135.600637,27.5620001 135.849578,28.8698787 136.347459,29.9541304 C136.845341,31.0383821 137.541011,31.8583474 138.434469,32.4140264 C139.327927,32.9697054 140.368022,33.2475449 141.554753,33.2475449 Z M141.554753,31.6618268 C140.340741,31.6618268 139.38931,31.2077964 138.700461,30.2997356 C138.011611,29.3916748 137.667186,27.9685945 137.667186,26.0304946 C137.667186,24.0788415 138.008201,22.642208 138.69023,21.7205941 C139.372259,20.7989801 140.3271,20.3381732 141.554753,20.3381732 C144.146464,20.3381732 145.44232,22.2288371 145.44232,26.0101649 C145.44232,29.7779395 144.146464,31.6618268 141.554753,31.6618268 Z M150.005096,33.2475449 C150.850812,32.976482 151.49192,32.6478182 151.928419,32.2615535 C152.364917,31.8752889 152.712752,31.2653973 152.971923,30.4318788 C153.231095,29.5983603 153.456164,28.341306 153.647132,26.6607159 L153.647132,26.6607159 L154.322341,20.6227892 L158.741891,20.6227892 L158.741891,33.0035883 L160.685675,33.0035883 L160.685675,18.9964117 L152.624089,18.9964117 L151.703349,26.8030239 C151.553303,28.1176791 151.410076,29.0731759 151.273671,29.6695143 C151.137265,30.2658528 150.942886,30.7131066 150.690535,31.0112758 C150.438185,31.309445 150.052838,31.5534017 149.534496,31.7431457 L149.534496,31.7431457 L150.005096,33.2475449 Z M164.511859,33.2475449 C165.357575,32.976482 165.998683,32.6478182 166.435182,32.2615535 C166.87168,31.8752889 167.219515,31.2653973 167.478687,30.4318788 C167.737858,29.5983603 167.962927,28.341306 168.153896,26.6607159 L168.153896,26.6607159 L168.829105,20.6227892 L173.248654,20.6227892 L173.248654,33.0035883 L175.192438,33.0035883 L175.192438,18.9964117 L167.130852,18.9964117 L166.210112,26.8030239 C166.060066,28.1176791 165.916839,29.0731759 165.780434,29.6695143 C165.644028,30.2658528 165.449649,30.7131066 165.197299,31.0112758 C164.944948,31.309445 164.559601,31.5534017 164.041259,31.7431457 L164.041259,31.7431457 L164.511859,33.2475449 Z M180.348579,33.0035883 L181.412545,29.4865469 L186.752834,29.4865469 L187.8168,33.0035883 L189.862888,33.0035883 L185.361495,18.9964117 L182.906189,18.9964117 L178.384335,33.0035883 L180.348579,33.0035883 Z M186.282234,27.9211585 L181.883145,27.9211585 L184.09292,20.6024595 L186.282234,27.9211585 Z M193.259394,33.0035883 L196.778665,26.437089 L198.476918,26.437089 L198.476918,33.0035883 L200.338858,33.0035883 L200.338858,26.437089 L202.01665,26.437089 L205.51546,33.0035883 L207.704774,33.0035883 L203.592138,25.562911 L207.316017,18.9964117 L205.26993,18.9964117 L202.01665,24.8513709 L200.338858,24.8513709 L200.338858,18.9964117 L198.476918,18.9964117 L198.476918,24.8513709 L196.799126,24.8513709 L193.586768,18.9964117 L191.499758,18.9964117 L195.223638,25.562911 L191.111002,33.0035883 L193.259394,33.0035883 Z" id="АВТОКОЛЛАЖ" fill="#000000" fill-rule="nonzero"></path>
                </g>
            </g>
        </g>
    </g>
</svg>