<?xml version="1.0" encoding="UTF-8"?>
<svg width="32px" height="33px" viewBox="0 0 32 33" version="1.1" xmlns="http://www.w3.org/2000/svg" xmlns:xlink="http://www.w3.org/1999/xlink">
    <title>8D3C7F05-3242-4A63-9CAE-1DD6304E4B3E</title>
    <g id="Главная" stroke="none" stroke-width="1" fill="none" fill-rule="evenodd">
        <g id="Home-Desktop" transform="translate(-1347.000000, -83.000000)" fill="#007FFF">
            <g id="Header/Header" transform="translate(0.000000, 40.000000)">
                <g id="Group-5" transform="translate(1266.000000, 36.000000)">
                    <g id="Group-4" transform="translate(0.000000, 7.832258)">
                        <g id="Icon-/-Shopping-cart" transform="translate(81.000000, 0.000000)">
                            <path d="M10.8751202,24.8360073 C12.3766698,24.8360073 13.5939162,26.0532537 13.5939162,27.5548033 C13.5939162,29.0563529 12.3766698,30.2735993 10.8751202,30.2735993 C9.37357066,30.2735993 8.15632424,29.0563529 8.15632424,27.5548033 C8.15632424,26.0532537 9.37357066,24.8360073 10.8751202,24.8360073 Z M21.7501767,24.8360073 C23.2517263,24.8360073 24.4689727,26.0532537 24.4689727,27.5548033 C24.4689727,29.0563529 23.2517263,30.2735993 21.7501767,30.2735993 C20.2486272,30.2735993 19.0313807,29.0563529 19.0313807,27.5548033 C19.0313807,26.0532537 20.2486272,24.8360073 21.7501767,24.8360073 Z M0,4.44519671 L0,1.72640072 L6.79695811,1.72640072 L7.58538154,7.16392897 L32,7.16392897 L25.3525957,22.1172113 L6.97365722,22.1172113 L4.44060878,4.44519671 L0,4.44519671 Z M27.8130657,9.88278868 L7.97962512,9.88278868 L9.33899125,19.3984791 L23.5853497,19.3984791 L27.8130657,9.88278868 Z" id="Shape"></path>
                        </g>
                    </g>
                </g>
            </g>
        </g>
    </g>
</svg>