<svg xmlns="http://www.w3.org/2000/svg" width="24" height="24" viewBox="0 0 24 24">
    <g fill="none" fill-rule="evenodd">
        <g fill="#002844">
            <g>
                <g>
                    <g>
                        <path d="M22.81 21.878l-5.348-5.346c1.435-1.65 2.303-3.8 2.303-6.152 0-5.175-4.21-9.38-9.382-9.38C5.206 1 1 5.21 1 10.38c0 5.171 4.21 9.381 9.383 9.381 2.351 0 4.503-.868 6.152-2.302l5.348 5.346c.127.127.297.195.463.195.166 0 .337-.063.464-.195.253-.254.253-.673 0-.927zM2.312 10.38c0-4.448 3.62-8.063 8.066-8.063 4.45 0 8.065 3.62 8.065 8.063 0 4.444-3.616 8.069-8.065 8.069-4.445 0-8.066-3.62-8.066-8.069z" transform="translate(-1120 -84) translate(0 40) translate(392 32) translate(728 12)"/>
                    </g>
                </g>
            </g>
        </g>
    </g>
</svg>
